<?xml version="1.0" standalone="no"?>
<!DOCTYPE svg PUBLIC "-//W3C//DTD SVG 20010904//EN"
 "http://www.w3.org/TR/2001/REC-SVG-20010904/DTD/svg10.dtd">
<svg version="1.0" xmlns="http://www.w3.org/2000/svg"
 width="416.000000pt" height="369.000000pt" viewBox="0 0 416.000000 369.000000"
 preserveAspectRatio="xMidYMid meet">
<metadata>
Created by potrace 1.15, written by Peter Selinger 2001-2017
</metadata>
<g transform="translate(0.000000,369.000000) scale(0.100000,-0.100000)"
fill="#000000" stroke="none">
<path d="M2635 3469 c-142 -18 -272 -98 -387 -237 -40 -49 -136 -169 -213
-268 -206 -265 -323 -402 -484 -567 -127 -130 -299 -287 -314 -287 -3 0 -8 35
-11 78 -33 406 -165 619 -427 687 -79 21 -276 16 -356 -9 -211 -66 -209 -310
8 -736 62 -122 64 -127 63 -200 -1 -41 -13 -163 -28 -270 -14 -107 -29 -230
-33 -273 l-8 -79 -38 -13 c-145 -50 -219 -241 -171 -445 42 -182 251 -509 412
-647 110 -93 248 -153 356 -153 71 0 147 38 186 95 l29 42 68 -13 c253 -50
539 -18 806 90 194 79 347 176 562 357 132 111 346 223 875 458 210 94 404
184 431 201 61 40 109 128 109 202 0 132 -118 239 -297 269 -78 14 -79 14
-318 -41 -232 -53 -427 -85 -404 -67 116 93 428 306 636 436 157 98 221 161
248 246 53 169 -72 351 -292 427 -93 31 -261 32 -344 1 -45 -16 -581 -315
-669 -372 -28 -18 -30 -24 38 84 79 124 238 347 312 440 95 117 120 170 120
255 0 201 -213 342 -465 309z m223 -134 c69 -31 104 -64 127 -119 27 -65 7
-130 -69 -221 -87 -104 -170 -220 -353 -496 -104 -156 -215 -322 -246 -367
-32 -46 -78 -124 -103 -174 -52 -103 -114 -267 -86 -229 76 109 230 307 276
357 66 74 190 153 615 395 308 176 339 189 455 189 165 0 343 -114 363 -232
15 -99 -35 -165 -200 -265 -370 -222 -780 -529 -918 -685 -101 -114 -230 -300
-217 -313 2 -2 82 66 178 151 96 86 189 162 205 169 17 7 86 21 154 29 151 20
344 57 511 98 150 36 220 35 305 -6 73 -36 105 -76 105 -129 0 -55 -28 -99
-82 -130 -24 -14 -182 -87 -353 -162 -581 -256 -834 -394 -1020 -557 -203
-177 -496 -318 -754 -362 -168 -29 -406 -16 -557 29 -136 40 -352 256 -498
497 -118 195 -141 286 -133 528 3 91 17 243 31 340 14 96 26 216 26 265 l0 91
-69 139 c-170 346 -203 537 -100 588 47 22 180 35 271 25 261 -27 398 -268
398 -697 0 -114 11 -141 56 -141 38 0 216 150 415 349 203 204 293 308 569
661 101 129 207 258 235 285 130 128 313 167 463 100z m-2383 -2292 c45 -233
349 -649 576 -790 l61 -37 -31 -28 c-40 -36 -104 -37 -196 -4 -88 32 -130 63
-229 167 -134 140 -270 361 -311 504 -37 127 -5 277 70 325 l30 19 8 -42 c4
-23 14 -75 22 -114z"/>
<path d="M1120 1322 c-8 -2 -64 -53 -125 -111 -60 -59 -136 -129 -168 -156
-74 -61 -83 -79 -62 -111 26 -40 56 -31 152 50 108 90 273 258 273 278 0 31
-40 60 -70 50z"/>
<path d="M1515 1168 c-11 -6 -72 -50 -135 -98 -130 -98 -242 -175 -348 -240
-39 -25 -75 -53 -78 -62 -14 -44 27 -79 74 -64 51 17 510 337 555 388 22 26
22 43 -3 68 -23 23 -36 24 -65 8z"/>
<path d="M1498 753 c-62 -31 -169 -75 -237 -99 -143 -50 -158 -63 -131 -115
15 -27 53 -24 162 12 108 35 347 148 367 173 19 23 4 66 -26 77 -17 6 -49 -5
-135 -48z"/>
</g>
</svg>
