<?xml version="1.0" standalone="no"?>
<!DOCTYPE svg PUBLIC "-//W3C//DTD SVG 20010904//EN"
 "http://www.w3.org/TR/2001/REC-SVG-20010904/DTD/svg10.dtd">
<svg version="1.0" xmlns="http://www.w3.org/2000/svg"
 width="297.000000pt" height="272.000000pt" viewBox="0 0 297.000000 272.000000"
 preserveAspectRatio="xMidYMid meet">
<metadata>
Created by potrace 1.15, written by Peter Selinger 2001-2017
</metadata>
<g transform="translate(0.000000,272.000000) scale(0.100000,-0.100000)"
fill="#000000" stroke="none">
<path d="M1140 2566 c-259 -55 -427 -204 -520 -463 l-22 -62 -67 6 c-190 15
-368 -81 -448 -245 -25 -51 -28 -67 -28 -162 0 -97 2 -110 31 -170 17 -36 49
-85 71 -110 l40 -44 -44 -43 c-160 -156 -156 -480 9 -659 40 -43 163 -114 198
-114 14 0 20 -11 25 -42 44 -274 365 -416 859 -380 279 20 474 69 694 172 242
115 468 307 601 512 l63 97 47 -6 c141 -16 260 105 307 314 46 207 -46 637
-180 847 -116 182 -308 265 -448 194 l-38 -18 -91 69 c-170 129 -432 247 -653
292 -128 27 -318 33 -406 15z m341 -112 c400 -67 800 -326 942 -609 92 -184
164 -577 139 -758 -21 -146 -131 -327 -298 -486 -284 -272 -690 -420 -1154
-421 -323 0 -527 77 -596 225 -39 83 -44 79 134 93 149 11 332 45 332 61 0 8
-64 13 -414 31 -192 10 -241 23 -312 83 -103 87 -143 305 -81 441 46 99 112
138 215 125 105 -13 293 -10 390 8 51 9 87 20 80 24 -7 3 -49 10 -93 14 -110
9 -360 52 -416 70 -66 22 -123 75 -159 149 -76 153 -20 317 134 396 66 33 73
35 165 33 53 -1 148 -2 211 -3 189 -2 333 37 453 124 67 48 242 222 192 191
-253 -160 -354 -199 -544 -212 l-93 -6 7 24 c20 67 90 193 136 243 76 84 200
149 319 169 61 10 225 6 311 -9z m1063 -358 c101 -59 179 -177 240 -361 68
-208 95 -455 62 -570 -37 -128 -98 -205 -162 -205 l-35 0 8 38 c4 20 8 116 7
212 0 151 -4 193 -28 305 -51 245 -119 412 -216 532 -45 56 -48 63 -33 73 27
16 110 4 157 -24z"/>
<path d="M2192 1729 c-40 -7 -287 -29 -339 -29 -50 0 -72 -67 -30 -94 18 -12
46 -13 162 -5 173 12 321 33 340 49 18 15 20 61 3 78 -13 13 -71 14 -136 1z"/>
<path d="M2281 1439 c-50 -20 -258 -72 -438 -109 -135 -28 -191 -44 -200 -56
-18 -24 -16 -38 5 -65 l19 -22 164 32 c184 36 324 70 447 107 96 29 118 53 88
99 -17 26 -43 31 -85 14z"/>
<path d="M2285 1174 c-56 -36 -235 -123 -332 -162 -66 -27 -84 -38 -89 -58 -7
-29 19 -64 47 -64 63 0 436 179 477 228 16 21 15 47 -4 66 -22 23 -53 19 -99
-10z"/>
</g>
</svg>
