<?xml version="1.0" standalone="no"?>
<!DOCTYPE svg PUBLIC "-//W3C//DTD SVG 20010904//EN"
 "http://www.w3.org/TR/2001/REC-SVG-20010904/DTD/svg10.dtd">
<svg version="1.0" xmlns="http://www.w3.org/2000/svg"
 width="415.000000pt" height="306.000000pt" viewBox="0 0 415.000000 306.000000"
 preserveAspectRatio="xMidYMid meet">
<metadata>
Created by potrace 1.15, written by Peter Selinger 2001-2017
</metadata>
<g transform="translate(0.000000,306.000000) scale(0.100000,-0.100000)"
fill="#000000" stroke="none">
<path d="M1500 3054 c-14 -2 -59 -9 -100 -15 -153 -22 -337 -77 -450 -134 -59
-30 -72 -31 -94 -6 -10 11 -41 29 -69 41 -42 18 -64 22 -124 18 -199 -13 -374
-179 -533 -503 -128 -259 -157 -438 -101 -615 34 -109 101 -170 203 -185 l46
-7 32 -91 c140 -402 488 -742 935 -915 115 -45 178 -61 285 -72 221 -22 479
39 705 167 44 25 85 46 91 46 39 1 437 -190 695 -334 256 -142 295 -158 379
-159 257 0 382 324 238 618 -48 98 -136 180 -293 276 -71 43 -211 128 -310
189 l-180 109 90 -6 c195 -15 397 -38 533 -61 168 -29 191 -30 261 -9 69 20
141 86 172 157 30 70 31 195 0 281 -54 151 -174 271 -331 330 -101 37 -292 69
-650 106 -239 25 -411 50 -426 61 -6 5 -14 39 -17 77 -9 90 -41 204 -80 277
-41 79 -163 201 -248 248 -139 78 -267 108 -479 112 -85 2 -166 2 -180 -1z
m425 -133 c173 -45 327 -155 388 -276 43 -87 88 -285 64 -285 -26 0 -200 66
-255 96 -84 47 -200 142 -269 220 -31 35 -58 62 -60 60 -6 -5 122 -202 165
-254 73 -90 214 -170 381 -217 132 -37 227 -52 570 -90 601 -67 691 -92 814
-225 112 -121 139 -297 60 -391 -51 -60 -117 -72 -248 -45 -109 23 -288 44
-560 66 -137 11 -311 27 -386 35 -75 8 -179 15 -232 15 -105 0 -297 -19 -297
-29 0 -4 62 -14 138 -24 223 -28 366 -61 444 -102 166 -87 702 -412 790 -479
156 -119 210 -392 103 -531 -35 -46 -73 -65 -133 -65 -66 0 -93 10 -245 98
-169 96 -500 264 -642 327 -264 115 -439 163 -635 172 -69 3 -123 3 -120 0 3
-2 88 -35 190 -71 102 -37 198 -72 215 -80 l30 -13 -85 -40 c-202 -96 -397
-135 -574 -115 -130 14 -229 47 -391 127 -223 111 -414 265 -547 443 -89 118
-146 225 -195 368 -33 94 -38 121 -37 194 2 241 218 704 396 851 170 140 387
230 657 274 129 21 402 14 506 -14z m-1170 -83 c14 -6 25 -15 25 -19 0 -4 -29
-30 -64 -58 -36 -29 -82 -73 -104 -99 -174 -209 -345 -611 -354 -831 -1 -38
-7 -65 -14 -68 -18 -7 -69 23 -88 51 -53 83 -59 258 -11 401 62 189 204 434
304 528 95 89 228 131 306 95z"/>
<path d="M724 2415 c-15 -23 -15 -27 0 -49 18 -29 165 -88 348 -141 112 -32
124 -34 145 -20 27 18 30 56 6 77 -10 9 -74 32 -142 52 -68 20 -162 52 -209
71 -103 42 -126 43 -148 10z"/>
<path d="M625 2136 c-13 -19 -14 -29 -6 -45 19 -34 222 -144 506 -273 141 -64
168 -66 181 -12 9 37 -12 54 -134 109 -136 60 -352 168 -423 211 -68 41 -102
43 -124 10z"/>
<path d="M557 1912 c-31 -34 -20 -56 66 -138 86 -83 159 -142 265 -213 69 -46
102 -49 122 -11 18 34 3 55 -78 111 -100 68 -161 118 -248 201 -75 71 -100 80
-127 50z"/>
</g>
</svg>
